<?xml version="1.0" encoding="utf-8"?>
<!-- Generator: Adobe Illustrator 24.1.1, SVG Export Plug-In . SVG Version: 6.00 Build 0)  -->
<svg version="1.1" xmlns="http://www.w3.org/2000/svg" xmlns:xlink="http://www.w3.org/1999/xlink" x="0px" y="0px"
	 viewBox="0 0 2500 2500" style="enable-background:new 0 0 2500 2500;" xml:space="preserve">
<style type="text/css">
	.st0{display:none;fill:#FFFFFF;}
	.st1{fill:none;stroke:#FFFFFF;stroke-width:100;stroke-miterlimit:10;}
	.st2{display:none;fill:#1C344C;stroke:#FFFFFF;stroke-width:110;}
	.st3{font-family:'MyriadPro-It';}
	.st4{font-size:1296px;}
	.st5{display:none;fill:none;stroke:#1C344C;stroke-width:11;}
	.st6{font-family:'MyriadPro-Regular';}
	.st7{font-size:1152.5431px;}
	.st8{display:none;}
	.st9{display:inline;fill:#FFFFFF;stroke:#000000;stroke-miterlimit:10;}
	.st10{font-family:'MyriadPro-Bold';}
	.st11{font-size:900px;}
	.st12{fill:#FFFFFF;}
	.st13{display:inline;fill:none;stroke:#FFFFFF;stroke-width:100;stroke-miterlimit:10;}
	.st14{display:inline;fill:#FFFFFF;}
</style>
<g id="Layer_1">
	<path id="SVGID_3_" class="st0" d="M1250,2129.8c-483.2,0-879.8-394.2-879.8-879.8S766.8,370.2,1250,370.2s879.8,396.6,879.8,879.8
		S1735.6,2129.8,1250,2129.8z M1992.8,1370.2c-26.4-7.2-235.6-69.7-468.8-31.2c96.2,271.6,137,488,144.2,536.1
		C1838.9,1757.2,1956.7,1579.3,1992.8,1370.2z M1543.3,1942.3c-12-67.3-55.3-298.1-161.1-572.1h-4.8
		c-420.7,149-574.5,442.3-588.9,468.7C918.3,1937.5,1077,2000,1250,2000C1355.8,2000,1454.3,1980.8,1543.3,1942.3L1543.3,1942.3z
		 M692.3,1754.8c14.4-26.4,223.6-370.2,610.6-495.2c12-4.8,19.2-7.2,31.3-7.2c-19.2-43.3-38.5-86.5-62.5-129.8
		c-375,113-738,108.2-774,105.8v24C500,1444.7,569.7,1620.2,692.3,1754.8L692.3,1754.8z M514.4,1098.6c36.1,0,343.8,0,694.7-88.9
		c-125-223.6-257.2-406.3-276.4-432.7C718.8,673.1,562.5,863,514.4,1098.6z M1074.5,524c19.2,26.4,156.3,213.9,281.3,437.5
		c264.4-101,379.8-250,394.2-269.2c-132.2-117.8-307.7-187.5-495.2-187.5C1187.5,500,1129.8,507.2,1074.5,524L1074.5,524z
		 M1831.7,776.4c-16.8,19.2-139.4,182.7-418.3,298.1c16.8,36.1,36.1,69.7,50.5,108.2c4.8,12,12,26.4,16.8,38.5
		c250-31.3,500,19.2,524,24C2000,1067.3,1937.5,906.3,1831.7,776.4z"/>
	
		<image style="display:none;overflow:visible;enable-background:new    ;" width="600" height="600" id="XMLID_12_" xlink:href="C:\Users\Sam Donald\Downloads\Linkedin-icon-design-premium-vector-PNG.png"  transform="matrix(3.0355 0 0 3.0355 338.8494 341.4118)">
	</image>
	<path id="XMLID_21_" class="st1" d="M255.6,403.2c0,178.8,1.7,1675.8,1.7,1675.8s-31,171.3,167,163l1588.6,7.6
		c0,0,177.1,12.2,177.1-118.8s15-1727.4,15-1727.4s-6.1-152.7-203.7-140.7l-1577,0.7C424.3,263,257.3,259.5,255.6,403.2z"/>
	<path id="XMLID_22_" class="st0" d="M744.3,616.5C658,622.6,589,694.4,587,781.1c-2.1,91.5,71.2,165,153.5,171.8
		c103.9,8.7,197.8-90.9,182.9-193.8C911.7,677.9,834.6,610.1,744.3,616.5z"/>
	<rect id="XMLID_38_" x="616.3" y="1034.9" class="st0" width="279.3" height="947"/>
	<path id="XMLID_39_" class="st0" d="M1004.3,1038.8h276.6v113.4c0,0,80.4-126.8,282.2-121.3c0,0,390.6-76.1,354,481.4l2.6,473.5
		h-284l-7.3-585c0,0-14.5-136.2-166.3-128.4c0,0-97-43.4-170.1,132.1l-3.6,581.3h-283.9v-947H1004.3z"/>
	
		<image style="display:none;overflow:visible;" width="512" height="512" id="XMLID_8_" xlink:href="C:\Users\Sam Donald\Downloads\225132.png"  transform="matrix(3.298 0 0 3.298 405.7009 349.595)">
	</image>
	<path id="XMLID_37_" class="st0" d="M1806.2,868.6V623.1h-248.5c0,0-227.3-21.2-269.7,212.1l-3,263.6h-157.6V1361h151.5l3,737.9
		h300l-3-738.1h200l27.3-264.9l-224.2,6.1V929.2C1582,929.2,1578.9,853.4,1806.2,868.6z"/>
	<text id="XMLID_43_" transform="matrix(1.2372 0 0 1 788.8367 1698.4833)" class="st2 st3 st4">B</text>
	<text id="XMLID_45_" transform="matrix(1.176 0 0 1 835.8058 1653.067)" class="st5 st6 st7">B</text>
	<text id="XMLID_46_" transform="matrix(1 0 0 1 427.0298 1601.4542)" class="st8"><tspan x="0" y="0" class="st9 st10 st4">m</tspan><tspan x="1114.5" y="0" class="st9 st10 st11">e</tspan></text>
	
		<image style="display:none;overflow:visible;" width="320" height="320" id="XMLID_48_" xlink:href="C:\Users\Sam Donald\Downloads\9-98971_contact-us-icon-in-black-ndash-free-icons.jpg"  transform="matrix(5.5947 0 0 5.5947 335.1246 333.9394)">
	</image>
	<path id="XMLID_51_" class="st12" d="M759.1,531.9c0,0,75.8-54.5,118.2,15.2L1016.7,838c0,0,39.4,69.7-63.6,112.1l-103,51.5
		c0,0-60.6,51.5,6.1,145.5l260.6,424.2c0,0,72.7,112.1,145.5,42.4l90.9-81.8c0,0,36.4-33.3,93.9,18.2l203,245.5
		c0,0,60.6,39.4-30.3,115.2l-145.5,100c0,0-112.1,81.8-303-42.4c0,0-521.2-400-666.7-954.5C504.5,1013.8,374.2,659.2,759.1,531.9z"
		/>
	<path id="XMLID_52_" class="st12" d="M1156,827.4c-3.8-188,147.2-353.4,336.8-368.9c243.5-19.8,414.4,218.8,397.5,353.2
		c-7,55.4-7.6,114-38.2,165.4c-20.3,34.2-35.9,60.4-76.4,109.5c-33.8,41.2,11.9,99.7-13.5,116.2c-25.9,16.9-61.1-17.3-130.2-33.5
		c-33.1-7.8-40.9,1.9-64.2,4.3c-34.7,3.6-95.5,2.1-127.5,1.5C1318.2,1172.6,1160,1024.4,1156,827.4z"/>
</g>
<g id="Layer_2" class="st8">
	<path id="XMLID_13_" class="st1" d="M462.2,552c0,0,180.5,306.6,769.6,396.8c0,0-60.2-300.6,180.3-420.8
		c0,0,252.5-144.3,456.9,72.1c0,0,198.3-46,243.2-90.9c0,0-39.7,150.3-155.5,198.3c0,0,17.7,28.2,207.7-49.1
		c0,0-76.2,127.3-181.6,188.9c0,0,60,477.5-369,876.8c0,0-580.9,504.1-1276,83c0,0,280.2,37.6,548-156.6c0,0-258.3-6.3-347.6-259.9
		l162.8-6.3c0,0-280.2-36-294.3-377.3c0,0,32.9,36,153.4,45.4C560.1,1052.5,296.9,856.3,462.2,552z"/>
	
		<image style="overflow:visible;" width="900" height="700" id="XMLID_14_" xlink:href="C:\Users\Sam Donald\Downloads\png-clipart-computer-icons-white-instagram-icon-text-logo.png"  transform="matrix(2.7778 0 0 2.7778 0 298.9379)">
	</image>
	<path id="XMLID_28_" class="st13" d="M355.1,719.7c0,0,10.5-376.7,323.7-376.7h1095.4c0,0,355-22.1,355,401.7v1051.2
		c0,0,3.1,374.6-403,374.6l-1036.4-11c0,0-334.7-29.1-334.7-388.6S355.1,719.7,355.1,719.7z"/>
	<path id="XMLID_29_" class="st13" d="M785.1,1240.1c4.8-212.3,186.5-395.6,407.8-401.7c210-5.8,396.4,149.7,428.9,362.5
		c13.7,232.3-153,432-365.5,459.1C1012.1,1691.1,779.6,1485.3,785.1,1240.1z"/>
	<path id="XMLID_30_" class="st14" d="M1709.4,599.7c61.8-26,132.2,2.7,157.1,60.4c23.4,54.4,0.4,120.7-51.3,148
		c-60.4,31.9-139.9-0.1-163.1-63.4C1632.8,692.4,1656.1,629.7,1709.4,599.7z"/>
</g>
</svg>
