<?xml version="1.0" encoding="utf-8"?>
<!-- Generator: Adobe Illustrator 24.1.1, SVG Export Plug-In . SVG Version: 6.00 Build 0)  -->
<svg version="1.1" id="Layer_1" xmlns="http://www.w3.org/2000/svg" xmlns:xlink="http://www.w3.org/1999/xlink" x="0px" y="0px"
	 viewBox="0 0 2500 2500" style="enable-background:new 0 0 2500 2500;" xml:space="preserve">
<style type="text/css">
	.st0{fill:#FFFFFF;}
</style>
<path id="SVGID_3_" class="st0" d="M1250,2129.8c-483.2,0-879.8-394.2-879.8-879.8S766.8,370.2,1250,370.2s879.8,396.6,879.8,879.8
	S1735.6,2129.8,1250,2129.8z M1992.8,1370.2c-26.4-7.2-235.6-69.7-468.8-31.2c96.2,271.6,137,488,144.2,536.1
	C1838.9,1757.2,1956.7,1579.3,1992.8,1370.2z M1543.3,1942.3c-12-67.3-55.3-298.1-161.1-572.1h-4.8
	c-420.7,149-574.5,442.3-588.9,468.7c129.8,98.6,288.5,161.1,461.5,161.1C1355.8,2000,1454.3,1980.8,1543.3,1942.3L1543.3,1942.3z
	 M692.3,1754.8c14.4-26.4,223.6-370.2,610.6-495.2c12-4.8,19.2-7.2,31.3-7.2c-19.2-43.3-38.5-86.5-62.5-129.8
	c-375,113-738,108.2-774,105.8v24C500,1444.7,569.7,1620.2,692.3,1754.8L692.3,1754.8z M514.4,1098.6c36.1,0,343.8,0,694.7-88.9
	c-125-223.6-257.2-406.3-276.4-432.7C718.8,673.1,562.5,863,514.4,1098.6z M1074.5,524c19.2,26.4,156.3,213.9,281.3,437.5
	c264.4-101,379.8-250,394.2-269.2c-132.2-117.8-307.7-187.5-495.2-187.5C1187.5,500,1129.8,507.2,1074.5,524L1074.5,524z
	 M1831.7,776.4c-16.8,19.2-139.4,182.7-418.3,298.1c16.8,36.1,36.1,69.7,50.5,108.2c4.8,12,12,26.4,16.8,38.5
	c250-31.3,500,19.2,524,24C2000,1067.3,1937.5,906.3,1831.7,776.4z"/>
</svg>
