<?xml version="1.0" encoding="utf-8"?>
<!-- Generator: Adobe Illustrator 24.1.1, SVG Export Plug-In . SVG Version: 6.00 Build 0)  -->
<svg version="1.1" xmlns="http://www.w3.org/2000/svg" xmlns:xlink="http://www.w3.org/1999/xlink" x="0px" y="0px"
	 viewBox="0 0 56.7 42.5" style="enable-background:new 0 0 56.7 42.5;" xml:space="preserve">
<style type="text/css">
	.st0{fill:none;stroke:#000000;stroke-width:0.2;stroke-miterlimit:10;}
	.st1{fill:none;stroke:#000000;stroke-width:0.1;stroke-miterlimit:10;}
	.st2{display:none;}
	.st3{font-family:'MyriadPro-Regular';}
	.st4{font-size:6px;}
	.st5{fill:#FFFFFF;stroke:#000000;stroke-width:0.2;stroke-miterlimit:10;}
	.st6{display:inline;}
	.st7{display:inline;fill:none;stroke:#000000;stroke-width:0.2;stroke-miterlimit:10;}
	.st8{fill:#FFFFFF;stroke:#000000;stroke-width:0.25;stroke-miterlimit:10;}
	.st9{display:inline;fill:none;stroke:#000000;stroke-width:0.25;stroke-miterlimit:10;}
	.st10{display:inline;fill:#FFFFFF;stroke:#000000;stroke-width:0.25;stroke-miterlimit:10;}
	.st11{fill:#FFFFFF;}
	.st12{display:inline;fill:#FFFFFF;}
	.st13{fill:none;stroke:#000000;stroke-width:0.25;stroke-miterlimit:10;}
</style>
<g id="Layer_5">
	<path id="XMLID_534_" class="st0" d="M32.4,34l-4-15.5c-0.9-0.2-1.9-0.5-2.9-0.7c-0.9-0.3-1.8-0.5-2.6-0.8
		c-0.4-0.2-0.9-0.5-1.4-0.7c-0.4-0.2-0.8-0.3-1.2-0.5c-0.2-0.1-0.2-0.4-0.1-0.6c0.1-0.2,0.2-0.3,0.4-0.3c0.9,0.3,1.7,0.7,2.6,1
		l2.6,0.4l2.1-0.8l1.7,0.8c0.2,0.3,0.3,0.6,0.5,0.8"/>
	<path id="XMLID_535_" class="st0" d="M37.4,32.7l-5.8-15.2c0.1-0.3,0.1-0.9,0-1.6c-0.1-0.7-0.4-1.1-0.6-1.4
		c-0.8-0.3-1.7-0.6-2.5-0.9l-1.6,0.6h-1.2l-0.4,0.6l-1.7-0.3c-0.8-0.2-1.6-0.4-2.4-0.5c-0.1,0-0.2,0.1-0.2,0.1
		c-0.1,0.1,0,0.2,0.1,0.3"/>
	<path id="XMLID_536_" class="st0" d="M25.3,15.8l-2.5-0.7l-1.5-0.6c-0.7-0.4-1.3-0.4-1.4-0.2c0,0-0.1,0.2,0,0.4
		c0.1,0.2,0.3,0.4,0.4,0.5"/>
	<path id="XMLID_543_" class="st0" d="M41.3,21.6"/>
	<polyline id="XMLID_548_" class="st0" points="25.3,14.8 26.3,15 27.2,14.8 27.8,14.8 28.1,15.2 	"/>
	<path id="XMLID_549_" class="st0" d="M22.2,14.2"/>
	<path id="XMLID_551_" class="st1" d="M25.4,14.8l-3.1-0.9c0,0-0.3,0,0,0.2l0.2,0.2"/>
	<text id="XMLID_552_" transform="matrix(1 0 0 1 4.041 10.8116)" class="st2 st3 st4">How are you?</text>
	<path id="XMLID_557_" class="st1" d="M19.1,16.1c0,0-0.3,1,1.4,1.6"/>
	<path id="XMLID_558_" class="st1" d="M18.5,16.4c0,0-0.7,1.8,2.7,2.5"/>
	<path id="XMLID_560_" class="st1" d="M34.4,15.2c0,0,0.6-1.2-1.4-2.3"/>
	<path id="XMLID_559_" class="st1" d="M35.2,14.9c0,0,1.3-2.1-2.8-3.7"/>
</g>
<g id="Hey_copy" class="st2">
	
		<image style="overflow:visible;opacity:0.59;" width="438" height="448" id="XMLID_495_" xlink:href="C:\Users\Sam Donald\Desktop\Screenshot_2021_1021_213926.png"  transform="matrix(5.789627e-02 0 0 5.789627e-02 15.6672 8.2911)">
	</image>
	<path id="XMLID_494_" class="st5" d="M29.3,21.3c-0.2,0.3-0.1,0.8,0.1,1.1c0.2,0.3,0.6,0.5,1,0.4c0.7-0.8,1.6-1.1,2.4-0.8
		c0.4,0.1,0.7,0.4,0.8,0.6c0,0-1,0-2.3,1.2c-1.2,1.1-1.2,2-2.3,2.4c-0.1,0.1-0.3,0.1-0.4,0.1c-0.1,0.1-0.3,0.1-0.4,0.2"/>
	<path id="XMLID_493_" class="st5" d="M28.3,20"/>
	<path id="XMLID_492_" class="st5" d="M26.3,29.1c-0.2-1-0.4-2.1-0.6-3.1c-1.3-0.4-1.6-1.2-1.6-1.2c-0.1-0.8-0.2-1.6-0.3-2.4"/>
	<path id="XMLID_491_" class="st5" d="M29.4,22.1"/>
	<g id="XMLID_489_">
		<g class="st6">
			<path d="M27.2,25.5c0.4-0.7,1-1.2,1.8-1.5c0.1,0,0.1-0.2-0.1-0.2c-0.8,0.3-1.5,0.8-1.9,1.6C27,25.5,27.2,25.6,27.2,25.5
				L27.2,25.5z"/>
		</g>
	</g>
	<text id="XMLID_488_" transform="matrix(1 0 0 1 6.582 12.5347)" class="st3 st4">Okey!</text>
	<path id="XMLID_487_" class="st5" d="M29.3,20.9c0.1-0.3,0.1-0.6,0.1-1c0-0.1,0-0.2,0-0.3c-0.1-0.3-0.5-0.3-0.8-0.3
		c-0.4,0-0.9,0-1.1,0.4c-0.1,0.1-0.1,0.3-0.1,0.4c0,0.4,0,0.9-0.1,1.3c0,0.2,0,0.4,0,0.6c0.1,0.2,0.2,0.4,0.4,0.4"/>
	<path id="XMLID_486_" class="st5" d="M26.5,19.9c-0.3-0.2-0.8-0.1-1.1,0.1s-0.5,0.6-0.6,1c-0.1,0.7,0.1,1.5,0.6,2
		c0.2,0.2,0.5,0.4,0.8,0.3"/>
	<path id="XMLID_485_" class="st5" d="M23.7,22c0.2-0.5,0.6-0.9,1-1.3"/>
	<path id="XMLID_484_" class="st5" d="M29.4,20.4c0.1,0.5,0,1-0.4,1.4c-0.3,0.4-0.8,0.6-1.3,0.5"/>
	<path id="XMLID_483_" class="st5" d="M26.2,23.3c0.1,0,0.2-0.1,0.3-0.2c0.1-0.1,0.1-0.2,0.2-0.2c0.1-0.1,0.2-0.2,0.2-0.3"/>
	<path id="XMLID_482_" class="st5" d="M26.8,22.5c0.4,0.1,0.8,0,1.2-0.1"/>
	<path id="XMLID_481_" class="st5" d="M23.8,22.6c0.1,0.3,0.3,0.5,0.5,0.7c0.1,0.1,0.1,0.2,0.2,0.2c0.1,0,0.2,0,0.2,0
		c0.2,0,0.5,0,0.7-0.1c0.1-0.1,0.1-0.1,0.2-0.2"/>
	<path id="XMLID_480_" class="st5" d="M23.8,22.5"/>
	<path id="XMLID_479_" class="st5" d="M23.8,22.5c0-0.1,0-0.3,0-0.4"/>
	<g id="XMLID_477_">
		<g class="st6">
			<path d="M27.5,19.5c-0.3,0.1-0.7-0.1-1,0.1c-0.3,0.2-0.3,0.6-0.3,0.9c0,0.4,0.1,0.8,0.1,1.2c0,0.3,0.2,0.6,0.5,0.8
				c0.1,0,0.2-0.2,0.1-0.2c-0.3-0.1-0.4-0.5-0.4-0.8c0-0.3-0.1-0.7-0.1-1c0-0.3,0-0.7,0.3-0.8c0.3-0.1,0.6,0,0.8-0.1
				C27.7,19.7,27.6,19.5,27.5,19.5L27.5,19.5z"/>
		</g>
	</g>
	<g id="XMLID_475_">
		<g class="st6">
			<path d="M26.2,23.4c0.1,0,0.1-0.2,0-0.2C26.1,23.2,26.1,23.4,26.2,23.4L26.2,23.4z"/>
		</g>
	</g>
	<g id="XMLID_473_">
		<g class="st6">
			<path d="M24.8,20.9c0.1,0,0.1-0.2,0-0.2C24.6,20.6,24.6,20.9,24.8,20.9L24.8,20.9z"/>
		</g>
	</g>
	<g id="XMLID_471_">
		<g class="st6">
			<path d="M33.8,40c-1.7-4.9-3.4-9.9-5.2-14.8c0-0.1-0.2-0.1-0.2,0.1c1.8,4.9,3.5,9.8,5.2,14.8C33.7,40.2,33.9,40.2,33.8,40
				L33.8,40z"/>
		</g>
	</g>
	<path id="XMLID_470_" class="st0" d="M27.9,25.5c0.2-0.1,0.3-0.1,0.5-0.2c0.2,0,0.3-0.1,0.5-0.1c1.1-0.4,1.3-1.2,2.5-2.2
		c1.4-1.1,2.4-1,2.4-1c-0.1-0.2-0.4-0.5-0.8-0.7c-0.8-0.3-1.7-0.1-2.5,0.6c-0.4,0-0.8-0.1-1-0.5c-0.2-0.3-0.2-0.7,0-1.1
		c0.4-1.4,0.8-2.8,1.3-4.1c0.1-0.8,0-1.2-0.1-1.3c-0.1,0-0.2,0-0.3,0.1c-0.2,0.3-0.5,0.8-0.8,1.4c-0.2,0.4-0.3,0.7-0.5,1.2
		c-0.2,0.4-0.4,1.1-0.8,1.8c-0.1-0.9-0.2-1.9-0.3-3c0-0.9-0.1-1.8,0-2.7c-0.1-0.2-0.4-0.3-0.6-0.3c-0.3,0-0.5,0.3-0.5,0.3
		c0,1.2,0,2.4,0,3.6c0,0.4,0,0.8,0,1.2c-0.1,0.6-0.1,0.8-0.3,1.3h-0.3c-0.3-0.9-0.6-1.8-0.9-2.6c-0.2-0.6-0.3-1.2-0.5-1.8
		c-0.2-0.1-0.3-0.2-0.5-0.2c-0.2,0.1-0.3,0.3-0.5,0.4c0,0.1,0,0.3,0,0.5c0,0.3,0.1,0.5,0.2,0.6c0.1,0.2,0.1,0.4,0.2,0.6
		c0.1,0.4,0.3,0.8,0.4,1.1c0,0.1,0,0.3,0,0.4c0.1,0.6,0.1,1.1,0.2,1.7l-0.1,0.6c-0.2-0.4-0.4-0.8-0.6-1.2c-0.2-0.6-0.4-1.2-0.5-1.8
		c-0.2-0.1-0.4-0.3-0.5-0.4c0,0-0.1,0-0.2,0c-0.2,0-0.3,0.2-0.3,0.2l-0.1,0.5l0.2,0.8l0.4,0.7c0.2,0.5,0.4,1,0.6,1.5
		c0.1,0.8,0.2,1.6,0.3,2.4c0,0,0.3,0.9,1.6,1.3c0.2,1,0.4,2.1,0.6,3.1l0.2,0.6c0.8,3.9,1.7,7.8,2.5,11.6"/>
	<path id="XMLID_469_" class="st7" d="M29,40.3c-0.8-3.9-1.7-7.8-2.5-11.6l-0.2-0.6c-0.2-1-0.4-2.1-0.6-3.1
		c-1.3-0.4-1.6-1.3-1.6-1.3c-0.1-0.4-0.1-0.8-0.2-1.2c0-0.1,0-0.2,0-0.3c0-0.1,0-0.3-0.1-0.4c0-0.2,0-0.3-0.1-0.5
		c0-0.1-0.1-0.4-0.1-0.7c0-0.2,0.1-0.4,0.2-0.4c0.1-0.1,0.2-0.2,0.4-0.3c0.2-0.1,0.4,0,0.4,0l0.3,0.3l0.5,0.5"/>
	<g id="XMLID_467_" class="st6">
		<g>
			<path d="M34,38.7c-1.5-3.7-2.9-7.3-4.4-11c-0.3-0.7-0.6-1.4-0.8-2.1c-0.2-0.5-0.3-0.8-0.2-1.3c0.3-1.1,0.5-2.3,0.7-3.4
				c0.1-0.4,0.2-0.9,0.2-1.2c0-0.6-0.5-1.2-0.8-1.7c-0.5-0.8-1-1.6-1.5-2.4c-0.1-0.2-0.2-0.3-0.3-0.5c-0.1-0.2-0.4-0.8-0.6-0.9
				c-0.4-0.2-0.6,0.3-0.6,0.6c-0.1,0.6,0.2,1.3,0.4,1.8c0.5,0.9,0.7,1.9,0.9,3c0,0.1,0.2,0.1,0.2-0.1c-0.1-0.7-0.3-1.5-0.5-2.2
				c-0.3-0.7-0.7-1.4-0.8-2.2c0-0.2-0.1-0.7,0.2-0.7c0.2,0,0.4,0.5,0.5,0.6c0.8,1.2,1.5,2.4,2.2,3.6c0.1,0.3,0.3,0.6,0.4,0.9
				c0.1,0.3,0,0.5-0.1,0.8c-0.1,0.4-0.1,0.8-0.2,1.2c-0.1,0.5-0.2,0.9-0.3,1.4c-0.1,0.3-0.1,0.6-0.2,1c-0.1,0.3-0.2,0.7-0.2,1
				c0,0.3,0.2,0.6,0.3,0.9c0.2,0.7,0.5,1.4,0.8,2c1.5,3.7,3,7.4,4.5,11.1C33.8,38.9,34,38.9,34,38.7L34,38.7z"/>
		</g>
	</g>
	<polyline id="XMLID_465_" class="st7" points="26.6,20.2 25.7,18.8 24.7,19 24.7,19.8 	"/>
	<text id="XMLID_462_" transform="matrix(1 0 0 1 5.8941 12.4099)" class="st6 st3 st4">Love!</text>
	<text id="XMLID_466_" transform="matrix(1 0 0 1 5.8941 12.7016)" class="st3 st4">Peace!</text>
	<polyline id="XMLID_519_" class="st7" points="25.3,18.8 25.6,17.9 26.4,17.5 27.1,19.4 	"/>
	<polyline id="XMLID_522_" class="st7" points="24.8,21.9 25.8,21.9 26.6,20.9 28,20.2 28.4,19.5 	"/>
	<path id="XMLID_513_" class="st7" d="M28.3,17.3c0.1-0.1,0.2-0.3,0.3-0.4c0.1-0.3,0.3-0.6,0.4-0.9c0.2-0.4,0.2-0.8,0.1-0.9
		c-0.2-0.1-0.5,0-0.9,0.3c-0.2,0.2-0.5,0.4-0.7,0.7"/>
</g>
<g id="Okay" class="st2">
	
		<image style="overflow:visible;opacity:0.59;" width="438" height="448" id="XMLID_259_" xlink:href="C:\Users\Sam Donald\Desktop\Screenshot_2021_1021_213926.png"  transform="matrix(5.789627e-02 0 0 5.789627e-02 15.6672 8.2911)">
	</image>
	<path id="XMLID_258_" class="st8" d="M26.2,28.6c-0.2-1-0.4-2.1-0.6-3.1c-1.3-0.4-1.6-1.3-1.6-1.3c-0.1-0.8-0.2-1.6-0.3-2.4
		c-0.2-0.5-0.4-1-0.6-1.5l-0.4-0.7l-0.2-0.8l0.1-0.5c0,0,0.1-0.2,0.3-0.2c0.1,0,0.1,0,0.2,0c0.2,0.1,0.4,0.3,0.5,0.4
		c0.2,0.6,0.4,1.2,0.5,1.8c0.2,0.4,0.4,0.8,0.6,1.2l0.1-0.6c-0.1-0.6-0.1-1.1-0.2-1.7c0-0.1,0-0.3,0-0.4c-0.1-0.4-0.3-0.8-0.4-1.1
		l-0.4-0.6l-0.1-1l0.6-0.5l0.6,0.1l0.6,1.9l0.7,2.6h0.3c0.1-0.5,0.2-0.7,0.3-1.3c0-0.4,0.1-0.9,0-1.2c0-1.2,0-2.4,0-3.6
		c0,0,0.2-0.3,0.5-0.3c0.2,0,0.5,0.1,0.6,0.3c0,0.8,0,1.7,0,2.7c0.1,1,0.1,2,0.3,3c0.4-0.8,0.6-1.4,0.8-1.8c0.2-0.5,0.3-0.7,0.5-1.2
		c0.3-0.6,0.6-1.1,0.8-1.4c0.1-0.1,0.2-0.1,0.3-0.1c0.2,0.1,0.2,0.5,0.1,1.3c-0.4,1.4-0.8,2.8-1.3,4.1c-0.2,0.3-0.2,0.7,0,1.1
		c0.2,0.3,0.6,0.5,1,0.5c0.7-0.7,1.7-0.9,2.5-0.6c0.4,0.2,0.6,0.5,0.8,0.7c0,0-1-0.1-2.4,1c-1.3,1-1.4,1.9-2.5,2.2
		c-0.1,0-0.3,0.1-0.5,0.1c-0.2,0.1-0.3,0.1-0.5,0.2"/>
	<line id="XMLID_257_" class="st9" x1="30.6" y1="16.7" x2="29.3" y2="21.5"/>
	<path id="XMLID_256_" class="st10" d="M35.4,15.7"/>
	<g id="XMLID_254_" class="st6">
		<line class="st11" x1="28" y1="14.9" x2="28.2" y2="19.5"/>
		<polygon points="28,14.9 28.3,19.5 28.1,19.5 		"/>
	</g>
	<g id="XMLID_253_" class="st6">
		<g>
			<path d="M25.9,28.5c1.1,4.7,2.7,9.3,4.9,13.7c0.1,0.3,0.6,0,0.4-0.3c-2.1-4.3-3.7-8.9-4.8-13.6C26.3,28,25.9,28.2,25.9,28.5
				L25.9,28.5z"/>
		</g>
	</g>
	<g id="XMLID_252_" class="st6">
		<g>
			<path d="M28.5,25.5c0,1.4,0.7,2.7,1.2,3.9c0.5,1.2,1,2.4,1.5,3.7c1,2.5,2.2,4.9,3.8,7c0.2,0.3,0.6,0,0.4-0.3
				c-1.5-2-2.6-4.3-3.6-6.6c-0.5-1.2-1-2.4-1.5-3.7c-0.5-1.3-1.2-2.6-1.2-4C29,25.1,28.5,25.1,28.5,25.5L28.5,25.5z"/>
		</g>
	</g>
	<g id="XMLID_251_" class="st6">
		<g>
			<path d="M18.7,25.2c0.2,0.8,0.5,1.5,1,2.1c0.5,0.6,1.3,0.9,2.2,0.9c0.3,0,0.3-0.5,0-0.5c-0.7,0-1.4-0.3-1.8-0.8
				c-0.5-0.5-0.7-1.2-0.8-1.8C19.1,24.8,18.7,24.9,18.7,25.2L18.7,25.2z"/>
		</g>
	</g>
	<g id="XMLID_250_" class="st6">
		<g>
			<path d="M35.5,16.3c0.5,0.5,1,1,1.3,1.7c0.3,0.7,0.4,1.5,0.5,2.3c0,0.3,0.5,0.3,0.5,0c0-0.9-0.1-1.7-0.5-2.5
				c-0.3-0.7-0.8-1.3-1.4-1.9C35.6,15.7,35.3,16.1,35.5,16.3L35.5,16.3z"/>
		</g>
	</g>
	<g id="XMLID_249_" class="st6">
		<g>
			<path d="M35.8,13.6c2.2,1.8,3.6,4.5,3.7,7.3c0,0.3,0.5,0.3,0.5,0c-0.1-3-1.5-5.8-3.8-7.7C36,13.1,35.6,13.4,35.8,13.6L35.8,13.6z
				"/>
		</g>
	</g>
	<g id="XMLID_248_" class="st6">
		<g>
			<path d="M16.3,24.9c-0.1,0.7,0.3,1.4,0.6,2c0.3,0.6,0.7,1.2,1.2,1.7c0.4,0.5,0.9,1.1,1.6,1.4c0.6,0.3,1.3,0.5,2,0.5
				c0.3,0,0.3-0.5,0-0.5c-0.6,0-1.3-0.1-1.8-0.4c-0.5-0.3-1-0.8-1.4-1.2c-0.4-0.5-0.7-1-1-1.5c-0.2-0.3-0.3-0.6-0.4-0.8
				c-0.1-0.3-0.3-0.7-0.2-1C16.9,24.8,16.4,24.6,16.3,24.9L16.3,24.9z"/>
		</g>
	</g>
	<g id="XMLID_246_" class="st6">
		<g>
			<path d="M27.1,23.9c0.4-0.7,1-1.2,1.8-1.5c0.1,0,0.1-0.2-0.1-0.2c-0.8,0.2-1.5,0.8-1.9,1.6C26.9,23.9,27.1,24,27.1,23.9
				L27.1,23.9z"/>
		</g>
	</g>
	<path id="XMLID_245_" class="st10" d="M46.7,14c-0.2,0.3-0.2,0.7,0,1.1c0.2,0.3,0.6,0.5,1,0.5c0.7-0.7,1.7-0.9,2.5-0.6
		c0.4,0.2,0.6,0.5,0.8,0.7c0,0-1-0.1-2.4,1c-1.3,1-1.4,1.9-2.5,2.2c-0.1,0-0.3,0.1-0.5,0.1c-0.2,0.1-0.3,0.1-0.5,0.2"/>
	<path id="XMLID_244_" class="st10" d="M45.5,13.2"/>
	<path id="XMLID_243_" class="st10" d="M43.5,22c-0.2-1-0.4-2.1-0.6-3.1c-1.3-0.4-1.6-1.3-1.6-1.3c-0.1-0.8-0.2-1.6-0.3-2.4"/>
	<path id="XMLID_242_" class="st9" d="M46.6,15"/>
	<g id="XMLID_240_" class="st6">
		<path class="st11" d="M45.5,12.9"/>
	</g>
	<g id="XMLID_238_" class="st6">
		<g>
			<path d="M44.4,18.4c0.4-0.7,1-1.2,1.8-1.5c0.1,0,0.1-0.2-0.1-0.2c-0.8,0.2-1.5,0.8-1.9,1.6C44.2,18.4,44.4,18.5,44.4,18.4
				L44.4,18.4z"/>
		</g>
	</g>
	<text id="XMLID_237_" transform="matrix(1 0 0 1 6.582 12.5347)" class="st6 st3 st4">Hey!</text>
	<g id="XMLID_236_" class="st6">
		<g>
			<path d="M46.8,14.1c0.1-0.3,0.1-0.5,0.1-0.8c0-0.2,0-0.5-0.1-0.7c-0.2-0.3-0.7-0.4-1.1-0.4c-0.4,0-0.8,0.1-1,0.5
				c-0.1,0.2-0.1,0.5-0.1,0.8c0,0.3,0,0.6,0,0.9c0,0.5,0,1.2,0.6,1.4c0.2,0.1,0.4-0.3,0.1-0.4c-0.2-0.1-0.3-0.3-0.3-0.5
				c0-0.3,0-0.6,0-0.8c0-0.3,0-0.6,0-0.8c0-0.2,0.1-0.4,0.3-0.4c0.2-0.1,0.4-0.1,0.5-0.1c0.2,0,0.4,0,0.5,0.1
				c0.2,0.1,0.2,0.3,0.2,0.5c0,0.3,0,0.5-0.1,0.8C46.3,14.3,46.7,14.4,46.8,14.1L46.8,14.1z"/>
		</g>
	</g>
	<g id="XMLID_235_" class="st6">
		<g>
			<path d="M44.6,12.7c-0.3-0.1-0.7,0-0.9,0.2c-0.3,0.3-0.4,0.7-0.4,1c0,0.7,0,1.9,0.9,1.9c0.3,0,0.3-0.4,0-0.4
				c-0.3,0-0.4-0.3-0.4-0.5c-0.1-0.3,0-0.6,0-0.9c0-0.3,0.1-0.5,0.3-0.7c0.2-0.2,0.4-0.3,0.6-0.2C44.7,13.1,44.8,12.7,44.6,12.7
				L44.6,12.7z"/>
		</g>
	</g>
	<g id="XMLID_234_" class="st6">
		<g>
			<path d="M43.8,12.9c-0.5-0.2-1-0.1-1.4,0.2c-0.4,0.3-0.6,0.9-0.6,1.4c0,0.5,0.1,1,0.4,1.5c0.3,0.4,0.7,0.8,1.2,0.7
				c0.3-0.1,0.1-0.4-0.1-0.4c-0.4,0.1-0.7-0.4-0.9-0.7c-0.2-0.3-0.3-0.7-0.3-1.1c0-0.4,0.1-0.7,0.4-1c0.3-0.3,0.7-0.4,1-0.3
				C43.9,13.3,44.1,13,43.8,12.9L43.8,12.9z"/>
		</g>
	</g>
	<g id="XMLID_233_" class="st6">
		<g>
			<path d="M41.1,15.3c0.1-0.1,0.1-0.2,0.2-0.4c0-0.1,0.1-0.1,0.1-0.2c0,0,0-0.1,0.1-0.1c0,0,0,0,0,0c0,0,0,0,0,0
				c0.1-0.1,0.2-0.2,0.3-0.3c0,0,0.1-0.1,0.2-0.1c0,0,0,0,0.1-0.1c0,0,0,0,0,0c0,0,0,0,0,0c0.1-0.1,0.1-0.2,0.1-0.3
				c-0.1-0.1-0.2-0.1-0.3-0.1c-0.5,0.3-0.9,0.8-1.1,1.3c0,0.1,0,0.2,0.1,0.3C40.9,15.4,41.1,15.4,41.1,15.3L41.1,15.3z"/>
		</g>
	</g>
	<g id="XMLID_232_" class="st6">
		<g>
			<path d="M46.4,13.7c0.1,0.4-0.1,0.9-0.3,1.2c-0.3,0.3-0.7,0.5-1.1,0.5c-0.1,0-0.2,0.1-0.2,0.2c0,0.1,0.1,0.2,0.2,0.2
				c0.5,0,1.1-0.2,1.5-0.6c0.4-0.4,0.5-1,0.4-1.5c0-0.1-0.1-0.2-0.2-0.1C46.4,13.5,46.4,13.6,46.4,13.7L46.4,13.7z"/>
		</g>
	</g>
	<g id="XMLID_231_" class="st6">
		<g>
			<path d="M43.5,16.6c0.2-0.1,0.4-0.3,0.5-0.4c0.1-0.1,0.2-0.2,0.2-0.3c0,0,0.1-0.1,0.1-0.2c0-0.1,0-0.1,0-0.2c0,0-0.1-0.1-0.1-0.1
				c0,0-0.1,0-0.2,0c0,0-0.1,0-0.1,0.1c0,0.1,0,0.1,0,0.2c0,0,0,0,0,0c0,0,0,0,0,0c0,0,0,0,0,0c0,0,0,0,0,0c0,0,0,0,0,0c0,0,0,0,0,0
				c0,0,0,0,0,0c0,0,0,0,0,0c0,0,0,0,0,0c0,0,0,0,0,0c0,0,0,0,0,0c0,0-0.1,0.1-0.1,0.1c-0.1,0.1-0.1,0.1-0.2,0.2c0,0,0,0,0,0
				c0,0,0,0,0,0c0,0,0,0,0,0c0,0,0,0-0.1,0c0,0,0,0,0,0c0,0,0,0,0,0c0,0,0,0,0,0c-0.1,0-0.2,0.1-0.1,0.2
				C43.3,16.6,43.4,16.7,43.5,16.6L43.5,16.6z"/>
		</g>
	</g>
	<g id="XMLID_230_" class="st6">
		<g>
			<path d="M44.1,15.9c0.4,0.1,0.9,0,1.3-0.1c0.1,0,0.2-0.1,0.1-0.2c0-0.1-0.1-0.2-0.2-0.1c-0.2,0.1-0.4,0.1-0.5,0.1
				c-0.1,0-0.2,0-0.3,0c0,0-0.1,0-0.1,0c0,0,0,0-0.1,0c0,0,0,0,0,0c0,0,0,0,0,0c-0.1,0-0.2,0-0.2,0.1C43.9,15.7,44,15.8,44.1,15.9
				L44.1,15.9z"/>
		</g>
	</g>
	<g id="XMLID_229_" class="st6">
		<g>
			<path d="M40.9,15.9c0.1,0.2,0.2,0.4,0.4,0.6c0.1,0.2,0.3,0.4,0.5,0.4c0.2,0,0.5,0,0.7,0c0.3-0.1,0.4-0.2,0.6-0.4
				c0.1-0.1,0-0.2-0.1-0.3c-0.1-0.1-0.2,0-0.3,0.1c-0.1,0.1-0.2,0.2-0.4,0.2c-0.1,0-0.2,0-0.2,0c-0.1,0-0.2,0-0.2,0
				c-0.1-0.1-0.2-0.2-0.3-0.3c-0.1-0.2-0.2-0.3-0.3-0.5c0-0.1-0.2-0.1-0.3-0.1C40.9,15.7,40.8,15.8,40.9,15.9L40.9,15.9z"/>
		</g>
	</g>
</g>
<g id="Hey" class="st2">
	
		<image style="overflow:visible;opacity:0.59;" width="438" height="448" id="XMLID_1_" xlink:href="C:\Users\Sam Donald\Desktop\Screenshot_2021_1021_213926.png"  transform="matrix(5.789627e-02 0 0 5.789627e-02 15.6672 8.2911)">
	</image>
	<path id="XMLID_291_" class="st5" d="M28.5,14.4c-0.2,0.3-0.1,0.8,0.1,1.1c0.2,0.3,0.6,0.5,1,0.4c0.7-0.8,1.6-1.1,2.4-0.8
		c0.4,0.1,0.7,0.4,0.8,0.6c0,0-1,0-2.3,1.2c-1.2,1.1-1.2,2-2.3,2.4c-0.1,0.1-0.3,0.1-0.4,0.1c-0.1,0.1-0.3,0.1-0.4,0.2"/>
	<path id="XMLID_178_" class="st5" d="M27.8,14.1"/>
	<path id="XMLID_293_" class="st5" d="M22.9,15.5c0.1,0.8,0.2,1.6,0.3,2.4c0,0,0.3,0.9,1.6,1.2c0.2,1,0.4,2.1,0.6,3.1l1.9,11.2
		l0.2,1.4"/>
	<path id="XMLID_173_" class="st5" d="M28.6,15.2"/>
	<g id="XMLID_157_">
		<g class="st6">
			<path d="M26.4,18.6c0.4-0.7,1-1.2,1.8-1.5c0.1,0,0.1-0.2-0.1-0.2c-0.8,0.3-1.5,0.8-1.9,1.6C26.2,18.6,26.3,18.7,26.4,18.6
				L26.4,18.6z"/>
		</g>
	</g>
	<text id="XMLID_154_" transform="matrix(1 0 0 1 6.582 12.5347)" class="st3 st4">Okey!</text>
	<text id="XMLID_562_" transform="matrix(1 0 0 1 34.0442 31.4741)" class="st3 st4">Let’s go</text>
	<path id="XMLID_188_" class="st5" d="M28.5,14c0.1-0.3,0.1-0.6,0.1-1c0-0.1,0-0.2,0-0.3c-0.1-0.3-0.5-0.3-0.8-0.3
		c-0.4,0-0.9,0-1.1,0.4c-0.1,0.1-0.1,0.3-0.1,0.4c0,0.4,0,0.9-0.1,1.3c0,0.2,0,0.4,0,0.6c0.1,0.2,0.2,0.4,0.4,0.4"/>
	<path id="XMLID_199_" class="st5" d="M25.6,13c-0.3-0.2-0.8-0.1-1.1,0.1c-0.3,0.2-0.5,0.6-0.6,1c-0.1,0.7,0.1,1.5,0.6,2
		c0.2,0.2,0.5,0.4,0.8,0.3"/>
	<path id="XMLID_262_" class="st5" d="M22.9,15.2c0.2-0.5,0.6-0.9,1-1.3"/>
	<path id="XMLID_340_" class="st5" d="M28.5,13.6c0.1,0.5,0,1-0.4,1.4c-0.3,0.4-0.8,0.6-1.3,0.5"/>
	<path id="XMLID_221_" class="st5" d="M25.4,16.4c0.1,0,0.2-0.1,0.3-0.2c0.1-0.1,0.1-0.2,0.2-0.2c0.1-0.1,0.2-0.2,0.2-0.3"/>
	<path id="XMLID_224_" class="st5" d="M26,15.6c0.4,0.1,0.8,0,1.2-0.1"/>
	<path id="XMLID_228_" class="st5" d="M23,15.8c0.1,0.3,0.3,0.5,0.5,0.7c0.1,0.1,0.1,0.2,0.2,0.2c0.1,0,0.2,0,0.2,0
		c0.2,0,0.5,0,0.7-0.1c0.1-0.1,0.1-0.1,0.2-0.2"/>
	<path id="XMLID_279_" class="st5" d="M23,15.7"/>
	<path id="XMLID_284_" class="st5" d="M22.9,15.6c0-0.1,0-0.3,0-0.4"/>
	<g id="XMLID_327_">
		<g class="st6">
			<path d="M26.7,12.7c-0.3,0.1-0.7-0.1-1,0.1c-0.3,0.2-0.3,0.6-0.3,0.9c0,0.4,0.1,0.8,0.1,1.2c0,0.3,0.2,0.6,0.5,0.8
				c0.1,0,0.2-0.2,0.1-0.2c-0.3-0.1-0.4-0.5-0.4-0.8c0-0.3-0.1-0.7-0.1-1c0-0.3,0-0.7,0.3-0.8c0.3-0.1,0.6,0,0.8-0.1
				C26.9,12.8,26.8,12.7,26.7,12.7L26.7,12.7z"/>
		</g>
	</g>
	<g id="XMLID_330_">
		<g class="st6">
			<path d="M25.4,16.5c0.1,0,0.1-0.2,0-0.2C25.3,16.3,25.3,16.5,25.4,16.5L25.4,16.5z"/>
		</g>
	</g>
	<g id="XMLID_332_">
		<g class="st6">
			<path d="M23.9,14c0.1,0,0.1-0.2,0-0.2C23.8,13.8,23.8,14,23.9,14L23.9,14z"/>
		</g>
	</g>
	<g id="XMLID_429_">
		<g class="st6">
			<path d="M33.4,34.2c-1.7-4.9-3.4-9.9-5.2-14.8c0-0.1-0.2-0.1-0.2,0.1c1.8,4.9,3.5,9.8,5.2,14.8C33.2,34.3,33.4,34.3,33.4,34.2
				L33.4,34.2z"/>
		</g>
	</g>
	<path id="XMLID_435_" class="st0" d="M28,21.9c0.2-0.1,0.3-0.1,0.5-0.2c0.2,0,0.3-0.1,0.5-0.1c1.1-0.4,1.3-1.2,2.5-2.2
		c1.4-1.1,2.4-1,2.4-1c-0.1-0.2-0.4-0.5-0.8-0.7c-0.8-0.3-1.7-0.1-2.5,0.6c-0.4,0-0.8-0.1-1-0.5c-0.2-0.3-0.2-0.7,0-1.1
		c0.4-1.4,0.8-2.8,1.3-4.1c0.1-0.8,0-1.2-0.1-1.3c-0.1,0-0.2,0-0.3,0.1c-0.2,0.3-0.5,0.8-0.8,1.4c-0.2,0.4-0.3,0.7-0.5,1.2
		c-0.2,0.4-0.4,1.1-0.8,1.8c-0.1-0.9-0.2-1.9-0.3-3c0-0.9-0.1-1.8,0-2.7c-0.1-0.2-0.4-0.3-0.6-0.3c-0.3,0-0.5,0.3-0.5,0.3
		c0,1.2,0,2.4,0,3.6c0,0.4,0,0.8,0,1.2c-0.1,0.6-0.1,0.8-0.3,1.3h-0.3c-0.3-0.9-0.6-1.8-0.9-2.6c-0.2-0.6-0.3-1.2-0.5-1.8
		c-0.2-0.1-0.3-0.2-0.5-0.2c-0.2,0.1-0.3,0.3-0.5,0.4c0,0.1,0,0.3,0,0.5c0,0.3,0.1,0.5,0.2,0.6c0.1,0.2,0.1,0.4,0.2,0.6
		c0.1,0.4,0.3,0.8,0.4,1.1c0,0.1,0,0.3,0,0.4c0.1,0.6,0.1,1.1,0.2,1.7l-0.1,0.6c-0.2-0.4-0.4-0.8-0.6-1.2c-0.2-0.6-0.4-1.2-0.5-1.8
		c-0.2-0.1-0.4-0.3-0.5-0.4c0,0-0.1,0-0.2,0c-0.2,0-0.3,0.2-0.3,0.2L22.5,15l0.2,0.8l0.4,0.7c0.2,0.5,0.4,1,0.6,1.5
		c0.1,0.8,0.2,1.6,0.3,2.4c0,0,0.3,0.9,1.6,1.3c0.2,1,0.4,2.1,0.6,3.1l0.2,0.6c0.8,3.9,1.7,7.8,2.5,11.6"/>
	<path id="XMLID_441_" class="st0" d="M29.6,37.9c-0.8-3.9-1.7-7.8-2.5-11.6l-0.2-0.6c-0.2-1-0.4-2.1-0.6-3.1
		c-1.3-0.4-1.6-1.3-1.6-1.3c-0.1-0.4-0.1-0.8-0.2-1.2c0-0.1,0-0.2,0-0.3c0-0.1,0-0.3-0.1-0.4c0-0.2,0-0.3-0.1-0.5
		c0-0.1-0.1-0.4-0.1-0.7c0-0.2,0.1-0.4,0.2-0.4c0.1-0.1,0.2-0.2,0.4-0.3c0.2-0.1,0.4,0,0.4,0l0.3,0.3l0.5,0.5V20l-0.9,0.2l-0.9-1"/>
	<g id="XMLID_461_">
		<g class="st6">
			<path d="M27.2,17.2c-0.1-0.9-0.2-1.8-0.3-2.8c-0.1-0.6-0.3-1.4-0.2-2c0-0.1,0.1-0.4,0.2-0.5c0.3-0.1,0.5,0.9,0.6,1.1
				c0.2,0.7,0.4,1.4,0.5,2.1c0.2,0.9,0.4,1.9,0.5,2.8c0,0.1,0.2,0.1,0.2,0c0.2-1,0.4-2.1,0.6-3.1c0.1-0.6,0.2-1.3,0.4-1.9
				c0.1-0.3,0.1-0.5,0.2-0.7c0.2-0.4,0.4-0.3,0.5,0.1c0.1,0.7,0,1.4-0.1,2.1c0,0.7-0.1,1.5-0.2,2.2c-0.1,0.4-0.2,0.8-0.2,1.2
				c0,0.4,0.1,0.8,0.3,1.1c0.1,0.1,0.2,0.3,0.3,0.4c0.1,0.1,0.3,0.3,0.2,0.1c0.1,0.2-0.2,0.7-0.2,0.9c-0.1,0.2-0.1,0.6-0.2,0.9
				c-0.2,0.3-0.9,0.8-1.3,1.1c0,0,0,0.1,0,0.1c0.5,1.6,1.1,3.1,1.7,4.6c1,2.5,2,5.1,3.1,7.6c0.3,0.6,0.5,1.2,0.8,1.9
				c0,0.1,0.2,0.1,0.2-0.1c-0.9-2.3-1.9-4.7-2.8-7c-0.9-2.2-1.9-4.4-2.6-6.6c0-0.1-0.1-0.5-0.2-0.4c0-0.1,0.2-0.2,0.3-0.3
				c0.3-0.2,0.8-0.5,1-0.8c0.1-0.2,0.1-0.5,0.2-0.7c0.1-0.4,0.2-0.7,0.3-1.1c0,0,0-0.1,0-0.1c-1.1-0.7-0.6-1.9-0.5-3
				c0.1-0.7,0.1-1.4,0.2-2.1c0-0.5,0.1-1.1,0.1-1.6c0-0.3,0-0.7-0.1-0.9c-0.3-0.5-0.7,0.2-0.8,0.5c-0.3,0.8-0.3,1.8-0.5,2.6
				c-0.2,1-0.4,1.9-0.6,2.9c0.1,0,0.1,0,0.2,0c-0.2-1.2-0.4-2.5-0.7-3.7c-0.1-0.3-0.6-3-1.3-2.3c-0.4,0.5-0.1,1.4-0.1,1.9
				c0.1,1.2,0.2,2.3,0.4,3.5C27,17.3,27.2,17.3,27.2,17.2L27.2,17.2z"/>
		</g>
	</g>
	<path id="XMLID_449_" class="st0" d="M30.1,19l-2.8-1.3c0,0-0.9,0.3-0.5,0.6l2.2,1.7l-1.7,0.6l-0.1,0.6"/>
	<polyline id="XMLID_443_" class="st0" points="25.3,17.4 25.3,16.6 26.3,16.4 27.2,17.8 	"/>
	<polyline id="XMLID_456_" class="st0" points="26.1,18.9 26.9,19.2 27,18.7 	"/>
	<text id="XMLID_457_" transform="matrix(1 0 0 1 5.8941 12.4099)" class="st3 st4">Peace!</text>
	<line id="XMLID_566_" class="st0" x1="28.4" y1="21.6" x2="33.9" y2="36.1"/>
</g>
<g id="Layer_3" class="st2">
	<g id="XMLID_121_">
		<g class="st6">
			<path d="M25.9,28.5c1.1,4.7,2.7,9.3,4.9,13.7c0.1,0.3,0.6,0,0.4-0.3c-2.1-4.3-3.7-8.9-4.8-13.6C26.3,28,25.9,28.2,25.9,28.5
				L25.9,28.5z"/>
		</g>
	</g>
	<g id="XMLID_122_">
		<g class="st6">
			<path d="M28.5,25.5c0,1.4,0.7,2.7,1.2,3.9c0.5,1.2,1,2.4,1.5,3.7c1,2.5,2.2,4.9,3.8,7c0.2,0.3,0.6,0,0.4-0.3
				c-1.5-2-2.6-4.3-3.6-6.6c-0.5-1.2-1-2.4-1.5-3.7c-0.5-1.3-1.2-2.6-1.2-4C29,25.1,28.5,25.1,28.5,25.5L28.5,25.5z"/>
		</g>
	</g>
	<g id="XMLID_146_">
		<g class="st6">
			<path d="M16.3,24.9c-0.1,0.7,0.3,1.4,0.6,2c0.3,0.6,0.7,1.2,1.2,1.7c0.4,0.5,0.9,1.1,1.6,1.4c0.6,0.3,1.3,0.5,2,0.5
				c0.3,0,0.3-0.5,0-0.5c-0.6,0-1.3-0.1-1.8-0.4c-0.5-0.3-1-0.8-1.4-1.2c-0.4-0.5-0.7-1-1-1.5c-0.2-0.3-0.3-0.6-0.4-0.8
				c-0.1-0.3-0.3-0.7-0.2-1C16.9,24.8,16.4,24.6,16.3,24.9L16.3,24.9z"/>
		</g>
	</g>
	<g id="XMLID_432_">
		<g class="st6">
			<path d="M27.2,20.1c0.4-0.7,1-1.2,1.8-1.5c0.1,0,0.1-0.2-0.1-0.2c-0.8,0.2-1.5,0.8-1.9,1.6C26.9,20.1,27.1,20.2,27.2,20.1
				L27.2,20.1z"/>
		</g>
	</g>
	<g id="XMLID_172_">
		<path class="st12" d="M28.2,19.6"/>
	</g>
	<text id="XMLID_204_" transform="matrix(1 0 0 1 6.5819 12.5349)" class="st3 st4">Hey!</text>
	<path id="XMLID_427_" class="st5" d="M35.3,12.8c0,0,2.2,1.6,1.4,3.8"/>
	<path id="XMLID_241_" class="st13" d="M35.8,10.1c0,0,4.7,1.1,3.5,6.8"/>
	<path id="XMLID_152_" class="st5" d="M20.7,22.7c0,0-2.2-1.5-1.5-3.7"/>
	<path id="XMLID_28_" class="st13" d="M20.4,25.5c0,0-4.7-0.9-3.9-6.6"/>
</g>
</svg>
