<?xml version="1.0" encoding="utf-8"?>
<!-- Generator: Adobe Illustrator 24.1.1, SVG Export Plug-In . SVG Version: 6.00 Build 0)  -->
<svg version="1.1" xmlns="http://www.w3.org/2000/svg" xmlns:xlink="http://www.w3.org/1999/xlink" x="0px" y="0px"
	 viewBox="0 0 56.7 42.5" style="enable-background:new 0 0 56.7 42.5;" xml:space="preserve">
<style type="text/css">
	.st0{display:none;}
	.st1{fill:#F15A24;stroke:#000000;stroke-width:0.2;stroke-miterlimit:10;}
	.st2{display:inline;}
	.st3{display:inline;stroke:#F15A24;stroke-width:0.2;stroke-miterlimit:10;}
	.st4{display:inline;fill:none;stroke:#000000;stroke-width:0.2;stroke-miterlimit:10;}
	.st5{display:inline;fill:#D4145A;stroke:#000000;stroke-width:0.2;stroke-miterlimit:10;}
	.st6{stroke:#F15A24;stroke-width:0.2;stroke-miterlimit:10;}
	.st7{fill:none;stroke:#000000;stroke-width:0.2;stroke-miterlimit:10;}
	.st8{fill:#D4145A;stroke:#000000;stroke-width:0.2;stroke-miterlimit:10;}
	.st9{display:none;fill:none;stroke:#000000;stroke-width:0.2;stroke-miterlimit:10;}
</style>
<g id="Layer_1" class="st0">
	
		<image style="display:inline;overflow:visible;" width="502" height="499" id="XMLID_1_" xlink:href="C:\Users\Sam Donald\Desktop\Screenshot_2021_1021_214007.png"  transform="matrix(7.362051e-02 0 0 7.362051e-02 8.9361 4.8723)">
	</image>
</g>
<g id="Layer_2">
	<path id="XMLID_25_" class="st1" d="M13.1,42.3c0,0,3.6-9.8,15.1-10c0,0,12.4-0.3,16,10"/>
</g>
<g id="Layer_4" class="st0">
	<g id="XMLID_44_" class="st2">
		<g>
			<path d="M25.2,19.8c-0.6,0-1.3,0.3-1.7,0.8c-0.3,0.4-0.5,1-0.1,1.5c0.4,0.4,1.1,0.3,1.5-0.1c0.2-0.2,0.2-0.5,0-0.7
				c-0.2-0.2-0.5-0.2-0.8-0.1c-0.1,0-0.3,0.1-0.3,0.3c0,0.1,0,0.2,0.1,0.3c0.2,0.1,0.5,0,0.6-0.2c0-0.1-0.2-0.2-0.2-0.1
				c0,0.1-0.3,0.2-0.3,0c0-0.1,0.1-0.1,0.2-0.2c0.1,0,0.2-0.1,0.4,0c0.2,0,0.4,0.2,0.3,0.4c0,0.2-0.3,0.3-0.4,0.4
				c-0.4,0.1-0.8,0-1-0.4c-0.1-0.4,0.1-0.8,0.4-1.1c0.4-0.3,0.9-0.5,1.4-0.6C25.3,20,25.3,19.8,25.2,19.8L25.2,19.8z"/>
		</g>
	</g>
	<path id="XMLID_5_" class="st3" d="M38.3,17c0,0,0.6,1.3-2.9,1.7c0,0-10.7,3.3-14.2,0.6c0,0-3.2-2.6-0.8-5c0,0,1.1-2.7,3.1,0.4
		c0,0,2-3.3,5.1-0.8c0,0,4-3.2,5.5-0.3s2.7,0.8,2.7,0.8s2.4,0.4,1.1,2L38.3,17z"/>
	<path id="XMLID_7_" class="st3" d="M19.7,16.9c0,0-3.1,0.3-2.6,2.7c0,0,0.7,2.9,2.9,3s2.7-2.7,2.7-2.7"/>
	<path id="XMLID_15_" class="st4" d="M36.2,18.5l0,4.1c0.1,5-3.3,9.3-7.6,9.6c-4.3,0.2-8.5-3.8-8.1-8.8l0-0.8"/>
	<line id="XMLID_16_" class="st4" x1="23.8" y1="24.1" x2="26.3" y2="23.8"/>
	<line id="XMLID_18_" class="st4" x1="30.3" y1="23.2" x2="32.1" y2="23.2"/>
	<path id="XMLID_21_" class="st4" d="M32.6,27.1l-8.4,0.6C24.3,27.7,28.7,35.4,32.6,27.1z"/>
	<path id="XMLID_27_" class="st5" d="M26.8,30.4c0,0,2.3-1.8,4.4-1.1"/>
	<path id="XMLID_29_" class="st4" d="M36.2,20.3c0,0,3.9,2.5,0,3"/>
	<path id="XMLID_33_" class="st4" d="M20.5,24.1c0,0-3.6,0.4-1.7-1.9"/>
	<line id="XMLID_35_" class="st4" x1="18.9" y1="25.6" x2="19.1" y2="24.1"/>
	<line id="XMLID_40_" class="st4" x1="37.1" y1="24.6" x2="36.8" y2="23.1"/>
	<polygon id="XMLID_36_" class="st4" points="19.9,26.4 19.2,26.5 18.9,27.2 18.6,26.6 17.9,26.5 18.4,26 18.3,25.3 18.9,25.6 
		19.5,25.3 19.4,26 	"/>
	<polygon id="XMLID_39_" class="st4" points="38,25.3 37.3,25.4 37.1,26.1 36.7,25.4 36.1,25.4 36.5,24.9 36.4,24.2 37,24.5 
		37.6,24.2 37.5,24.9 	"/>
</g>
<g id="Layer_6" class="st0">
	<g id="XMLID_101_" class="st2">
		<g>
			<path d="M25.2,19.8c-0.6,0-1.3,0.3-1.7,0.8c-0.3,0.4-0.5,1-0.1,1.5c0.4,0.4,1.1,0.3,1.5-0.1c0.2-0.2,0.2-0.5,0-0.7
				c-0.2-0.2-0.5-0.2-0.8-0.1c-0.1,0-0.3,0.1-0.3,0.3c0,0.1,0,0.2,0.1,0.3c0.2,0.1,0.5,0,0.6-0.2c0-0.1-0.2-0.2-0.2-0.1
				c0,0.1-0.3,0.2-0.3,0c0-0.1,0.1-0.1,0.2-0.2c0.1,0,0.2-0.1,0.4,0c0.2,0,0.4,0.2,0.3,0.4c0,0.2-0.3,0.3-0.4,0.4
				c-0.4,0.1-0.8,0-1-0.4c-0.1-0.4,0.1-0.8,0.4-1.1c0.4-0.3,0.9-0.5,1.4-0.6C25.3,20,25.3,19.8,25.2,19.8L25.2,19.8z"/>
		</g>
	</g>
	<path id="XMLID_121_" class="st3" d="M38.3,17c0,0,0.6,1.3-2.9,1.7c0,0-10.7,3.3-14.2,0.6c0,0-3.2-2.6-0.8-5c0,0,1.1-2.7,3.1,0.4
		c0,0,2-3.3,5.1-0.8c0,0,4-3.2,5.5-0.3s2.7,0.8,2.7,0.8s2.4,0.4,1.1,2L38.3,17z"/>
	<path id="XMLID_120_" class="st3" d="M19.7,16.9c0,0-3.1,0.3-2.6,2.7c0,0,0.7,2.9,2.9,3s2.7-2.7,2.7-2.7"/>
	<path id="XMLID_119_" class="st4" d="M36.2,18.5l0,4.1c0.1,5-3.3,9.3-7.6,9.6c-4.3,0.2-8.5-3.8-8.1-8.8l0-0.8"/>
	<path id="XMLID_117_" class="st4" d="M30.3,24.2c0.1-0.4,0.4-0.7,0.8-0.8c0.4,0,0.9,0.3,0.9,0.8"/>
	<path id="XMLID_118_" class="st4" d="M24.5,24.6c0.1-0.4,0.4-0.7,0.8-0.8c0.4,0,0.9,0.3,0.9,0.8"/>
	<path id="XMLID_114_" class="st4" d="M36.2,20.3c0,0,3.9,2.5,0,3"/>
	<path id="XMLID_113_" class="st4" d="M20.5,24.1c0,0-3.6,0.4-1.7-1.9"/>
	<line id="XMLID_112_" class="st4" x1="18.9" y1="25.6" x2="19.1" y2="24.1"/>
	<line id="XMLID_111_" class="st4" x1="37.1" y1="24.6" x2="36.8" y2="23.1"/>
	<polygon id="XMLID_110_" class="st4" points="19.9,26.4 19.2,26.5 18.9,27.2 18.6,26.6 17.9,26.5 18.4,26 18.3,25.3 18.9,25.6 
		19.5,25.3 19.4,26 	"/>
	<polygon id="XMLID_109_" class="st4" points="38,25.3 37.3,25.4 37.1,26.1 36.7,25.4 36.1,25.4 36.5,24.9 36.4,24.2 37,24.5 
		37.6,24.2 37.5,24.9 	"/>
	<path id="XMLID_124_" class="st4" d="M27.2,29.3c0.1,0.3,0.5,0.6,0.8,0.6c0.4,0,0.9-0.2,1-0.6"/>
	<line id="XMLID_126_" class="st4" x1="25.1" y1="24.2" x2="25.7" y2="24.2"/>
	<line id="XMLID_127_" class="st4" x1="30.9" y1="23.9" x2="31.5" y2="23.9"/>
</g>
<g id="Layer_3">
	<g id="XMLID_61_">
		<g>
			<path d="M25.7,19.5c-0.6,0-1.3,0.2-1.7,0.6c-0.4,0.4-0.6,1-0.2,1.5c0.4,0.4,1.1,0.4,1.5,0c0.2-0.2,0.2-0.5,0-0.7
				c-0.2-0.2-0.5-0.3-0.8-0.2c-0.1,0-0.3,0.1-0.3,0.3c-0.1,0.1,0,0.2,0.1,0.3c0.2,0.1,0.6,0.1,0.6-0.2c0-0.1-0.2-0.2-0.2-0.1
				c0,0.1-0.3,0.1-0.3,0c0-0.1,0.1-0.1,0.2-0.2c0.1,0,0.2,0,0.3,0c0.2,0,0.3,0.2,0.3,0.4c-0.1,0.2-0.3,0.3-0.5,0.4
				c-0.4,0.1-0.8-0.1-1-0.5c-0.1-0.4,0.2-0.8,0.5-1.1c0.4-0.3,0.9-0.4,1.4-0.5C25.8,19.7,25.8,19.5,25.7,19.5L25.7,19.5z"/>
		</g>
	</g>
	<path id="XMLID_60_" class="st6" d="M39,17.7c0,0,0.5,1.4-3,1.4c0,0-10.9,2.4-14.2-0.4c0,0-3-2.9-0.4-5c0,0,1.3-2.6,3,0.6
		c0,0,2.2-3.1,5.1-0.4c0,0,4.2-2.9,5.5,0.1s2.7,1,2.7,1s2.4,0.6,1,2.1L39,17.7z"/>
	<path id="XMLID_59_" class="st6" d="M20.4,16.2c0,0-3.1,0-2.8,2.5c0,0,0.5,3,2.7,3.2s2.9-2.5,2.9-2.5"/>
	<path id="XMLID_58_" class="st7" d="M36.7,19.1l-0.3,4.1c-0.2,5-4.4,9.1-8.7,9c-4.4-0.1-7.8-4.5-7-9.4l0-0.8"/>
	<path id="XMLID_56_" class="st7" d="M23.9,23.7"/>
	<path id="XMLID_64_" class="st7" d="M32.2,23.4"/>
	<path id="XMLID_48_" class="st7" d="M30.5,23.3"/>
	<path id="XMLID_65_" class="st8" d="M30.9,29.5"/>
	<path id="XMLID_55_" class="st8" d="M26.4,30.2"/>
	<path id="XMLID_53_" class="st7" d="M36.6,20.8c0,0,3.7,2.7-0.2,3"/>
	<path id="XMLID_52_" class="st7" d="M20.6,23.5c0,0-3.6,0.1-1.6-2.1"/>
	<line id="XMLID_51_" class="st7" x1="19.5" y1="24.8" x2="19.6" y2="23.3"/>
	<line id="XMLID_50_" class="st7" x1="37.1" y1="25.2" x2="37" y2="23.7"/>
	<polygon id="XMLID_49_" class="st7" points="20.6,25.5 19.9,25.6 19.7,26.3 19.3,25.7 18.6,25.7 19.1,25.2 18.9,24.5 19.5,24.8 
		20.1,24.4 20,25.1 	"/>
	<polygon id="XMLID_47_" class="st7" points="38,26 37.3,26 37,26.6 36.7,26 36,25.9 36.6,25.4 36.5,24.7 37.1,25.1 37.7,24.8 
		37.5,25.5 	"/>
	<circle id="XMLID_54_" class="st7" cx="25.5" cy="24.2" r="0.8"/>
	<circle id="XMLID_57_" class="st7" cx="31.2" cy="24.2" r="0.8"/>
	<ellipse id="XMLID_66_" class="st9" cx="28.3" cy="29.2" rx="1.7" ry="0.4"/>
	<g id="XMLID_72_">
		<g>
			<path d="M25.6,24.6c0.5,0,0.5-0.8,0-0.8C25.1,23.8,25.1,24.6,25.6,24.6L25.6,24.6z"/>
		</g>
	</g>
	<g id="XMLID_73_">
		<g>
			<path d="M31.3,24.6c0.5,0,0.5-0.8,0-0.8C30.8,23.8,30.8,24.6,31.3,24.6L31.3,24.6z"/>
		</g>
	</g>
	<line id="XMLID_78_" class="st7" x1="26.3" y1="28.9" x2="30.9" y2="28.9"/>
</g>
<g id="Layer_5" class="st0">
	<g id="XMLID_99_" class="st2">
		<g>
			<path d="M25.5,19.6c-0.6,0-1.3,0.2-1.7,0.6c-0.4,0.4-0.6,1-0.2,1.5c0.4,0.4,1.1,0.4,1.5,0c0.2-0.2,0.2-0.5,0-0.7
				c-0.2-0.2-0.5-0.3-0.8-0.2c-0.1,0-0.3,0.1-0.3,0.3c-0.1,0.1,0,0.2,0.1,0.3c0.2,0.1,0.6,0.1,0.6-0.2c0-0.1-0.2-0.2-0.2-0.1
				c0,0.1-0.3,0.1-0.3,0c0-0.1,0.1-0.1,0.2-0.2c0.1,0,0.2,0,0.3,0c0.2,0,0.3,0.2,0.3,0.4c-0.1,0.2-0.3,0.3-0.5,0.4
				c-0.4,0.1-0.8-0.1-1-0.5c-0.1-0.4,0.2-0.8,0.5-1.1c0.4-0.3,0.9-0.4,1.4-0.5C25.6,19.8,25.6,19.6,25.5,19.6L25.5,19.6z"/>
		</g>
	</g>
	<path id="XMLID_98_" class="st3" d="M38.8,17.7c0,0,0.5,1.4-3,1.4c0,0-10.9,2.4-14.2-0.4c0,0-3-2.9-0.4-5c0,0,1.3-2.6,3,0.6
		c0,0,2.2-3.1,5.1-0.4c0,0,4.2-2.9,5.5,0.1c1.2,3,2.7,1,2.7,1s2.4,0.6,1,2.1L38.8,17.7z"/>
	<path id="XMLID_97_" class="st3" d="M20.2,16.3c0,0-3.1,0-2.8,2.5c0,0,0.5,3,2.7,3.2s2.9-2.5,2.9-2.5"/>
	<path id="XMLID_96_" class="st4" d="M36.5,19.2l-0.3,4.1c-0.2,5-4,9.1-8.3,9c-4.4-0.1-8.2-4.4-7.4-9.4l0-0.8"/>
	<path id="XMLID_95_" class="st4" d="M23.8,23.8"/>
	<path id="XMLID_94_" class="st4" d="M32,23.5"/>
	<path id="XMLID_93_" class="st4" d="M30.3,23.4"/>
	<path id="XMLID_92_" class="st5" d="M30.7,29.6"/>
	<path id="XMLID_91_" class="st5" d="M26.3,30.3"/>
	<path id="XMLID_90_" class="st4" d="M36.4,20.9c0,0,3.7,2.7-0.2,3"/>
	<path id="XMLID_89_" class="st4" d="M20.4,23.5c0,0-3.6,0.1-1.6-2.1"/>
	<line id="XMLID_88_" class="st4" x1="19.4" y1="24.9" x2="19.4" y2="23.4"/>
	<line id="XMLID_87_" class="st4" x1="36.9" y1="25.2" x2="36.8" y2="23.8"/>
	<polygon id="XMLID_86_" class="st4" points="20.4,25.6 19.7,25.7 19.5,26.4 19.1,25.8 18.5,25.8 18.9,25.3 18.7,24.6 19.3,24.8 
		19.9,24.5 19.9,25.1 	"/>
	<polygon id="XMLID_85_" class="st4" points="37.8,26.1 37.2,26.1 36.8,26.7 36.5,26.1 35.9,26 36.4,25.5 36.3,24.8 36.9,25.2 
		37.5,24.9 37.4,25.6 	"/>
	<circle id="XMLID_84_" class="st4" cx="25.4" cy="24.3" r="0.8"/>
	<circle id="XMLID_83_" class="st4" cx="31.1" cy="24.3" r="0.8"/>
	<g id="XMLID_82_" class="st2">
		<g>
			<path d="M25.4,24.7c0.5,0,0.5-0.8,0-0.8C24.9,23.9,24.9,24.7,25.4,24.7L25.4,24.7z"/>
		</g>
	</g>
	<g id="XMLID_81_" class="st2">
		<g>
			<path d="M31.1,24.7c0.5,0,0.5-0.8,0-0.8C30.6,23.9,30.6,24.7,31.1,24.7L31.1,24.7z"/>
		</g>
	</g>
	<path id="XMLID_80_" class="st7" d="M26.1,29c0.2,0.2,1,0.8,2.1,0.8c1.3,0.1,2.3-0.6,2.5-0.8"/>
	<ellipse id="XMLID_105_" class="st4" cx="28.5" cy="29.4" rx="0.6" ry="0.8"/>
</g>
</svg>
