<?xml version="1.0" encoding="utf-8"?>
<!-- Generator: Adobe Illustrator 24.1.1, SVG Export Plug-In . SVG Version: 6.00 Build 0)  -->
<svg version="1.1" xmlns="http://www.w3.org/2000/svg" xmlns:xlink="http://www.w3.org/1999/xlink" x="0px" y="0px"
	 viewBox="0 0 2500 2500" style="enable-background:new 0 0 2500 2500;" xml:space="preserve">
<style type="text/css">
	.st0{display:none;}
	.st1{fill:#FFFFFF;}
	.st2{display:inline;fill:none;stroke:#000000;stroke-width:50;stroke-miterlimit:10;}
	.st3{fill:none;stroke:#FFFFFF;stroke-width:100;stroke-miterlimit:10;}
</style>
<g id="Layer_1" class="st0">
	<path id="SVGID_3_" class="st1" d="M1250,2129.8c-483.2,0-879.8-394.2-879.8-879.8S766.8,370.2,1250,370.2s879.8,396.6,879.8,879.8
		S1735.6,2129.8,1250,2129.8z M1992.8,1370.2c-26.4-7.2-235.6-69.7-468.8-31.2c96.2,271.6,137,488,144.2,536.1
		C1838.9,1757.2,1956.7,1579.3,1992.8,1370.2z M1543.3,1942.3c-12-67.3-55.3-298.1-161.1-572.1h-4.8
		c-420.7,149-574.5,442.3-588.9,468.7C918.3,1937.5,1077,2000,1250,2000C1355.8,2000,1454.3,1980.8,1543.3,1942.3L1543.3,1942.3z
		 M692.3,1754.8c14.4-26.4,223.6-370.2,610.6-495.2c12-4.8,19.2-7.2,31.3-7.2c-19.2-43.3-38.5-86.5-62.5-129.8
		c-375,113-738,108.2-774,105.8v24C500,1444.7,569.7,1620.2,692.3,1754.8L692.3,1754.8z M514.4,1098.6c36.1,0,343.8,0,694.7-88.9
		c-125-223.6-257.2-406.3-276.4-432.7C718.8,673.1,562.5,863,514.4,1098.6z M1074.5,524c19.2,26.4,156.3,213.9,281.3,437.5
		c264.4-101,379.8-250,394.2-269.2c-132.2-117.8-307.7-187.5-495.2-187.5C1187.5,500,1129.8,507.2,1074.5,524L1074.5,524z
		 M1831.7,776.4c-16.8,19.2-139.4,182.7-418.3,298.1c16.8,36.1,36.1,69.7,50.5,108.2c4.8,12,12,26.4,16.8,38.5
		c250-31.3,500,19.2,524,24C2000,1067.3,1937.5,906.3,1831.7,776.4z"/>
	
		<image style="overflow:visible;enable-background:new    ;" width="600" height="600" id="XMLID_12_" xlink:href="C:\Users\Sam Donald\Downloads\Linkedin-icon-design-premium-vector-PNG.png"  transform="matrix(3.0355 0 0 3.0355 338.8494 341.4118)">
	</image>
	<path id="XMLID_21_" class="st2" d="M513.1,622.1c0,132.4,1.3,1241.2,1.3,1241.2s-23.5,126.9,126.8,120.7l1205.9,5.6
		c0,0,134.4,9,134.4-88s11.4-1279.4,11.4-1279.4s-4.6-113.1-154.6-104.2l-1197.1,0.5C641.2,518.3,514.4,515.7,513.1,622.1z"/>
	<path id="XMLID_22_" class="st1" d="M800,672.1c-69.4,4.9-124.9,62.6-126.5,132.4c-1.7,73.6,57.3,132.7,123.5,138.2
		c83.6,7,159.1-73.1,147.1-155.9C934.7,721.5,872.7,666.9,800,672.1z"/>
	<rect id="XMLID_38_" x="691.2" y="1057.4" class="st1" width="224.7" height="761.8"/>
	<path id="XMLID_39_" class="st1" d="M1074.5,1057.4H1297v91.2c0,0,64.7-102,227-97.6c0,0,314.2-61.2,284.8,387.3l2.1,380.9h-228.5
		l-5.9-470.6c0,0-11.7-109.6-133.8-103.3c0,0-78-34.9-136.8,106.3l-2.9,467.6h-228.4L1074.5,1057.4L1074.5,1057.4z"/>
	
		<image style="display:inline;overflow:visible;" width="512" height="512" id="XMLID_8_" xlink:href="C:\Users\Sam Donald\Downloads\225132.png"  transform="matrix(3.298 0 0 3.298 405.7009 349.595)">
	</image>
</g>
<g id="Layer_2">
	<path id="XMLID_13_" class="st3" d="M462.2,552c0,0,180.5,306.6,769.6,396.8c0,0-60.2-300.6,180.3-420.8
		c0,0,252.5-144.3,456.9,72.1c0,0,198.3-46,243.2-90.9c0,0-39.7,150.3-155.5,198.3c0,0,17.7,28.2,207.7-49.1
		c0,0-76.2,127.3-181.6,188.9c0,0,60,477.5-369,876.8c0,0-580.9,504.1-1276,83c0,0,280.2,37.6,548-156.6c0,0-258.3-6.3-347.6-259.9
		l162.8-6.3c0,0-280.2-36-294.3-377.3c0,0,32.9,36,153.4,45.4C560.1,1052.5,296.9,856.3,462.2,552z"/>
</g>
</svg>
